<?xml version="1.0" encoding="UTF-8"?>
<svg id="Layer_2" data-name="Layer 2" xmlns="http://www.w3.org/2000/svg" xmlns:xlink="http://www.w3.org/1999/xlink" viewBox="0 0 255 58">
  <defs>
    <style>
      .cls-1 {
        fill: none;
      }

      .cls-2 {
        clip-path: url(#clippath);
      }

      .cls-3 {
        fill: #f36a34;
      }
    </style>
    <clipPath id="clippath">
      <rect class="cls-1" width="255" height="58"/>
    </clipPath>
  </defs>
  <g id="Layer_1-2" data-name="Layer 1">
    <g class="cls-2">
      <g>
        <path class="cls-3" d="M.02,29.03H9.8c-.22,3.74,2.68,6.05,7.6,6.05,3.96,0,6.72-1.49,6.72-3.74C24.12,25.01,.47,30,.47,15.82,.47,8.13,7.48,3.51,16.95,3.51c10.21,0,17.83,5.31,16.33,14.11h-9.85c.9-3.67-1.93-6.12-6.5-6.12-3.8,0-6.05,1.71-6.05,3.8,0,6.57,23.65,1.19,23.65,15.46,0,7.76-7.08,12.31-17.15,12.31C6.56,43.08-.29,37.7,.02,29.03Z"/>
        <path class="cls-3" d="M83.58,4.63h10.59l-11.04,37.34h-12.39l-6.34-24.8-6.34,24.78h-12.39L34.58,4.63h10.75l6.93,27.77,6.86-27.77h10.75l6.56,27.25,7.15-27.25Z"/>
        <path class="cls-3" d="M93.98,23.29c0-11.86,7.83-19.78,19.61-19.78s19.61,7.92,19.61,19.78-7.83,19.78-19.61,19.78-19.61-7.92-19.61-19.78Zm28.71,0c0-6.73-3.66-11.05-9.1-11.05s-9.1,4.32-9.1,11.05,3.66,11.05,9.1,11.05,9.1-4.41,9.1-11.05Z"/>
        <path class="cls-3" d="M135.77,23.29c0-11.86,7.83-19.78,19.61-19.78s19.61,7.92,19.61,19.78-7.83,19.78-19.61,19.78-19.61-7.92-19.61-19.78Zm28.71,0c0-6.73-3.66-11.05-9.1-11.05s-9.1,4.32-9.1,11.05,3.66,11.05,9.1,11.05,9.1-4.41,9.1-11.05Z"/>
        <path class="cls-3" d="M213.61,45.17c0,7.7-7.82,12.85-17.9,12.85s-17.6-5.08-19.18-13.28h11.26c.67,2.91,3.58,4.55,7.83,4.55s7.38-1.64,7.38-4.63-2.83-5-8.79-5c-3.28,0-7.31,.61-10.74,1.49v-6.64c6.27-.74,10.97-2.46,14.25-4.77-1.49,.38-3.13,.61-4.92,.61-9.1,0-15.29-5-15.29-12.85,0-8.28,6.93-13.96,17.38-13.96,5.37,0,9.78,1.49,12.75,4.1,.67-2.25,.38-5.08-.22-7.61h7.53c.83,4.32-.74,9.34-3.8,12.31,.67,1.57,1.04,3.29,1.04,5.15,0,6.12-3.96,12.09-11.11,16.12,7.63,1.11,12.54,5.38,12.54,11.57Zm-18.71-22.17c4.1,0,6.79-2.16,6.79-5.38s-2.68-5.38-6.79-5.38-6.86,2.16-6.86,5.38,2.75,5.38,6.86,5.38Z"/>
        <path class="cls-3" d="M215.77,23.29c0-11.86,7.83-19.78,19.61-19.78s19.61,7.92,19.61,19.78-7.83,19.78-19.61,19.78-19.61-7.92-19.61-19.78Zm28.71,0c0-6.73-3.66-11.05-9.1-11.05s-9.1,4.32-9.1,11.05,3.66,11.05,9.1,11.05,9.1-4.41,9.1-11.05Z"/>
      </g>
    </g>
  </g>
</svg>